<svg width="40" height="40" viewBox="0 0 40 40" fill="none" xmlns="http://www.w3.org/2000/svg">
<path d="M37 15H3M23.4 29.1667L27.65 25L23.4 20.8333M16.6 20.8333L12.35 25L16.6 29.1667M3 13L3 27C3 29.8003 3 31.2004 3.55587 32.27C4.04482 33.2108 4.82502 33.9757 5.78465 34.455C6.8756 35 8.30373 35 11.16 35H28.84C31.6963 35 33.1244 35 34.2154 34.455C35.175 33.9757 35.9552 33.2108 36.4441 32.27C37 31.2004 37 29.8003 37 27V13C37 10.1997 37 8.79961 36.4441 7.73005C35.9552 6.78924 35.175 6.02434 34.2154 5.54497C33.1244 5 31.6963 5 28.84 5L11.16 5C8.30373 5 6.8756 5 5.78465 5.54497C4.82502 6.02433 4.04482 6.78924 3.55587 7.73005C3 8.79961 3 10.1997 3 13Z" stroke="white" stroke-width="2" stroke-linecap="round" stroke-linejoin="round"/>
</svg>
