<svg width="40" height="40" viewBox="0 0 40 40" fill="none" xmlns="http://www.w3.org/2000/svg">
<path d="M3 20L19.3918 28.2446C19.6148 28.3567 19.7263 28.4128 19.8433 28.4349C19.9468 28.4544 20.0532 28.4544 20.1567 28.4349C20.2737 28.4128 20.3852 28.3567 20.6082 28.2446L37 20M3 28.5505L19.3918 36.795C19.6148 36.9072 19.7263 36.9633 19.8433 36.9853C19.9468 37.0049 20.0532 37.0049 20.1567 36.9853C20.2737 36.9633 20.3852 36.9072 20.6082 36.795L37 28.5505M3 11.4495L19.3918 3.20499C19.6148 3.09282 19.7263 3.03674 19.8433 3.01466C19.9468 2.99511 20.0532 2.99511 20.1567 3.01466C20.2737 3.03674 20.3852 3.09282 20.6082 3.20499L37 11.4495L20.6082 19.6941C20.3852 19.8063 20.2737 19.8623 20.1567 19.8844C20.0532 19.904 19.9468 19.904 19.8433 19.8844C19.7263 19.8623 19.6148 19.8063 19.3918 19.6941L3 11.4495Z" stroke="white" stroke-width="2" stroke-linecap="round" stroke-linejoin="round"/>
</svg>
