<svg width="40" height="40" viewBox="0 0 40 40" fill="none" xmlns="http://www.w3.org/2000/svg">
<path d="M14.3333 16.8139L18.1111 20.4976L26.6111 12.2093M10.5556 30.6278V34.9294C10.5556 35.9108 10.5556 36.4016 10.7619 36.6536C10.9413 36.8728 11.2134 37.0003 11.501 37C11.8317 36.9997 12.2247 36.6931 13.0107 36.08L17.5165 32.5651C18.437 31.8471 18.8972 31.488 19.4097 31.2327C19.8644 31.0062 20.3484 30.8407 20.8485 30.7406C21.4123 30.6278 22.0016 30.6278 23.1804 30.6278H27.9333C31.107 30.6278 32.6938 30.6278 33.9059 30.0255C34.9722 29.4958 35.8391 28.6505 36.3824 27.6108C37 26.4288 37 24.8815 37 21.7869V11.8409C37 8.74629 37 7.19899 36.3824 6.017C35.8391 4.97731 34.9722 4.132 33.9059 3.60225C32.6938 3 31.107 3 27.9333 3H12.0667C8.89304 3 7.30622 3 6.09405 3.60225C5.0278 4.132 4.16091 4.97731 3.61763 6.017C3 7.19899 3 8.74629 3 11.8409V23.2604C3 24.9732 3 25.8297 3.19309 26.5323C3.71707 28.4392 5.2445 29.9286 7.20003 30.4395C7.92064 30.6278 8.79894 30.6278 10.5556 30.6278Z" stroke="white" stroke-width="2" stroke-linecap="round" stroke-linejoin="round"/>
</svg>
