<svg width="40" height="40" viewBox="0 0 40 40" fill="none" xmlns="http://www.w3.org/2000/svg">
<path d="M16.6 29.6196V33.6C16.6 35.4778 18.1222 37 20 37C21.8778 37 23.4 35.4778 23.4 33.6V29.6196M20 3V4.7M4.7 20H3M8.95 8.95L7.92983 7.92983M31.05 8.95L32.0704 7.92983M37 20H35.3M30.2 20C30.2 25.6333 25.6333 30.2 20 30.2C14.3667 30.2 9.8 25.6333 9.8 20C9.8 14.3667 14.3667 9.8 20 9.8C25.6333 9.8 30.2 14.3667 30.2 20Z" stroke="white" stroke-width="2" stroke-linecap="round" stroke-linejoin="round"/>
</svg>
